<?xml version="1.0" encoding="iso-8859-1"?>
<!-- Generator: Adobe Illustrator 18.0.0, SVG Export Plug-In . SVG Version: 6.00 Build 0)  -->
<!DOCTYPE svg PUBLIC "-//W3C//DTD SVG 1.1//EN" "http://www.w3.org/Graphics/SVG/1.1/DTD/svg11.dtd">
<svg xmlns="http://www.w3.org/2000/svg" xmlns:xlink="http://www.w3.org/1999/xlink" version="1.1" id="Capa_1" x="0px" y="0px" viewBox="0 0 373.655 373.655" style="enable-background:new 0 0 373.655 373.655;" xml:space="preserve" width="512px" height="512px">
<g>
	<polygon points="132.434,125.668 111.221,146.881 171.826,207.487 171.826,280.045 201.826,280.045 201.826,207.487    262.434,146.881 241.221,125.667 186.826,180.06  " fill="#006DF0"/>
	<path d="M369.261,176.221L197.434,4.394c-5.857-5.858-15.355-5.858-21.213,0L4.394,176.221c-5.858,5.858-5.858,15.355,0,21.213   l171.827,171.827c2.929,2.929,6.767,4.394,10.606,4.394c3.839,0,7.678-1.464,10.606-4.394l171.827-171.827   C375.119,191.576,375.119,182.079,369.261,176.221z M186.827,337.441L36.213,186.827L186.827,36.214l150.614,150.614   L186.827,337.441z" fill="#006DF0"/>
</g>
<g>
</g>
<g>
</g>
<g>
</g>
<g>
</g>
<g>
</g>
<g>
</g>
<g>
</g>
<g>
</g>
<g>
</g>
<g>
</g>
<g>
</g>
<g>
</g>
<g>
</g>
<g>
</g>
<g>
</g>
</svg>
